<svg width="28" height="28" viewBox="0 0 28 28" fill="none" xmlns="http://www.w3.org/2000/svg">
    <path d="M1.43166 0.956989C1.19143 1.06246 0.945335 1.36129 0.89846 1.60738C0.80471 2.12886 0.746116 2.05855 3.40041 4.71871L5.86135 7.17964L5.51565 7.44332C4.28518 8.35738 3.10159 9.623 2.25198 10.9531C1.64846 11.8964 0.875022 13.6015 0.875022 14C0.875022 14.4394 1.68948 16.1914 2.3633 17.2109C4.53713 20.4804 7.96487 22.625 12.0078 23.2402C12.9512 23.3808 15.0606 23.3808 15.9922 23.2402C17.3692 23.0293 18.5176 22.6953 19.8067 22.1386L20.5157 21.8339L23.1289 24.4472C25.9649 27.2773 25.8711 27.1953 26.4043 27.0957C26.6914 27.0429 27.043 26.6914 27.0957 26.4043C27.1953 25.8711 27.2598 25.9531 24.5996 23.2871L22.1446 20.8261L22.5489 20.5156C23.8965 19.4902 25.0977 18.1367 25.9649 16.6777C26.5274 15.7343 27.125 14.3515 27.125 14C27.125 13.5605 26.3106 11.8027 25.6367 10.789C23.4336 7.46675 19.9121 5.29292 15.8164 4.73042C14.9844 4.6191 12.8399 4.63667 12.0078 4.75972C10.6309 4.97066 9.3301 5.35152 8.14065 5.88472C7.81838 6.03121 7.53713 6.14839 7.50784 6.14839C7.4844 6.14839 6.31838 4.99996 4.91799 3.59371C3.48244 2.1523 2.28713 1.00386 2.18166 0.956989C1.94729 0.85738 1.66018 0.85738 1.43166 0.956989ZM15.8867 6.64058C18.0606 6.98042 20.1582 7.92378 21.793 9.28316C22.4434 9.82222 23.3399 10.789 23.7852 11.4101C24.2364 12.0488 24.7754 12.9863 25.0157 13.5722L25.1973 14L25.0157 14.4218C24.2715 16.2148 22.7422 18.0957 21.0723 19.2734L20.791 19.4726L19.6895 18.371L18.5821 17.2636L18.8106 16.9062C19.0742 16.4843 19.3496 15.8105 19.4903 15.2539C19.6426 14.6503 19.625 13.2441 19.461 12.6464C18.8574 10.4257 17.1407 8.84371 14.9141 8.45699C13.6426 8.23433 12.1192 8.53316 11.0528 9.21285L10.7364 9.41792L9.83401 8.51558C9.34182 8.02339 8.9551 7.60152 8.97268 7.58394C9.04299 7.50777 9.88674 7.19136 10.4258 7.03316C11.1055 6.82808 12.043 6.63472 12.711 6.56441C13.3848 6.48824 15.1895 6.53511 15.8867 6.64058ZM8.32229 9.64058L9.41799 10.7363L9.18948 11.0937C9.06643 11.2871 8.88479 11.6503 8.79104 11.8964C8.48049 12.6699 8.41018 13.0625 8.41018 14C8.41018 14.9375 8.48049 15.33 8.79104 16.1035C9.31838 17.4277 10.4668 18.6054 11.7676 19.1562C13.4258 19.8652 15.3946 19.7421 16.8594 18.8398L17.2696 18.5878L18.166 19.4902C18.8926 20.2109 19.0508 20.3984 18.9805 20.4453C18.8282 20.5449 18.0137 20.8496 17.4864 21.0019C12.3184 22.496 6.79299 20.5214 3.90432 16.1386C3.47073 15.4824 2.84963 14.2226 2.84963 14.0058C2.84963 13.7773 3.44143 12.5761 3.88088 11.9023C4.39651 11.1171 4.86526 10.5488 5.53909 9.89839C6.04885 9.40621 7.09768 8.55074 7.19729 8.55074C7.21487 8.55074 7.72463 9.04292 8.32229 9.64058ZM14.791 10.3378C16.7774 10.7539 18.0899 12.7753 17.6621 14.7793C17.5801 15.166 17.2989 15.875 17.2285 15.875C17.1817 15.875 12.125 10.8183 12.125 10.7714C12.125 10.7011 12.8281 10.4199 13.1973 10.3378C13.6836 10.2324 14.2871 10.2324 14.791 10.3378ZM13.3379 14.6562C14.7324 16.0507 15.875 17.2109 15.875 17.2285C15.875 17.2988 15.166 17.58 14.7793 17.6621C12.1426 18.2246 9.77541 15.8574 10.3379 13.2207C10.4199 12.8339 10.7012 12.125 10.7715 12.125C10.7891 12.125 11.9492 13.2675 13.3379 14.6562Z" fill="black"/>
</svg>
