<svg width="120" height="120" viewBox="0 0 120 120" fill="none" xmlns="http://www.w3.org/2000/svg">
    <path d="M17.9297 15.2812C17.2969 15.3984 15.9141 15.914 14.8594 16.4062C11.2969 18.1171 8.4375 21.8437 7.75781 25.6406C7.40625 27.5859 7.40625 99.914 7.75781 101.859C8.64844 106.898 13.2422 111.422 18.2812 112.266C19.3594 112.453 30.9141 112.5 57.1875 112.453L94.5703 112.383L96.1172 111.773C98.3672 110.906 99.7031 110.062 101.156 108.586C102.633 107.086 103.406 105.82 104.273 103.617L104.883 102.07L104.953 73.8281L105 45.5859L99.375 51.2109L93.75 56.8359V78.4687V100.102L93.1641 100.664L92.6016 101.25H56.25H19.8984L19.3359 100.664L18.75 100.102V63.7499V27.3984L19.3359 26.8359L19.8984 26.2499H49.0312H78.1641L83.7891 20.6249L89.4141 14.9999L54.2578 15.0234C33.4219 15.0468 18.6328 15.1406 17.9297 15.2812Z" fill="white"/>
    <path d="M100.453 15.3281C99.3281 15.75 94.6172 20.3672 95.1094 20.5547C96.586 21.1172 106.359 30.8906 106.945 32.3906C107.016 32.5781 107.953 31.8047 109.523 30.2344C111.539 28.2187 112.031 27.5859 112.266 26.7187C112.969 24.1406 111.844 21.3047 109.008 18.4922C106.102 15.5625 102.938 14.4141 100.453 15.3281Z" fill="white"/>
    <path d="M65.4609 49.7344L38.2266 76.9922L39.2109 77.5781C40.4766 78.3281 48.8906 86.7422 49.8281 88.1719L50.5547 89.25L77.8125 61.9922L105.094 34.7109L104.414 33.7031C103.125 31.7109 93.5859 22.5 92.8359 22.5C92.7656 22.5 80.4375 34.7578 65.4609 49.7344Z" fill="white"/>
    <path d="M35.9766 79.2655C35.2501 81.3749 30.047 97.3827 30.0704 97.4296C30.1173 97.4531 47.0157 91.9687 48.2345 91.5234C48.4688 91.4296 48.4454 91.2421 48.1173 90.6796C47.1329 88.9921 38.5313 80.3905 36.8204 79.3827C36.2579 79.0546 36.0704 79.0312 35.9766 79.2655Z" fill="white"/>
</svg>
