<svg width="120" height="120" viewBox="0 0 120 120" fill="none" xmlns="http://www.w3.org/2000/svg">
    <path d="M56.7422 10.4531C52.5703 11.5781 49.0312 15.1641 47.9297 19.3359C47.4844 21.1172 47.4844 23.8828 47.9297 25.6641C48.375 27.2813 49.4062 29.2969 50.4844 30.5625L51.2578 31.5L47.2969 39.4688L43.3594 47.4609L40.8281 47.6016C35.8828 47.9063 32.2734 50.2031 30.1172 54.4219C29.0859 56.5078 28.7344 58.2188 28.8984 60.8203C29.0625 63.7031 29.8828 65.7188 32.2266 68.8359C32.3906 69.0469 31.3594 71.3438 28.4766 77.1094L24.4922 85.0781H22.6172C19.0781 85.0781 16.1484 86.2734 13.7109 88.7109C8.83594 93.5859 8.83594 101.414 13.7109 106.289C18.5859 111.164 26.4141 111.164 31.2891 106.289C35.8594 101.719 36.1875 94.3359 32.0156 89.4141L31.2188 88.4766L35.25 80.4609L39.2578 72.4219H41.25H43.2422L47.25 80.4609L51.2812 88.4766L50.4844 89.4141C46.3125 94.3359 46.6406 101.719 51.2109 106.289C56.0859 111.164 63.9141 111.164 68.7891 106.289C71.2031 103.875 72.4219 100.922 72.4219 97.5C72.4219 94.0781 71.2031 91.125 68.7891 88.7109C66.3516 86.2734 63.4219 85.0781 59.8828 85.0781H58.0078L54 77.0391L49.9688 69.0234L50.7891 68.0859C51.8438 66.8438 53.1094 64.2891 53.4375 62.6484C53.8359 60.7266 53.625 57.3984 52.9922 55.7344C52.5469 54.6094 51.8203 53.3672 50.2734 51.1875C50.1094 50.9531 51.0938 48.7734 54.0234 42.8906L58.0078 34.9219H60H61.9922L65.9766 42.8906C68.8594 48.6563 69.8906 50.9531 69.7266 51.1641C68.625 52.6406 67.4297 54.6563 67.0078 55.7578C66.375 57.3984 66.1641 60.75 66.5625 62.6484C66.9844 64.7578 68.3203 67.1484 69.9375 68.7656C72.3984 71.2266 75.3281 72.4219 78.8672 72.4219H80.7422L84.75 80.4609L88.7812 88.4766L87.9844 89.4141C83.8125 94.3359 84.1406 101.719 88.7109 106.289C93.5859 111.164 101.414 111.164 106.289 106.289C111.164 101.414 111.164 93.5859 106.289 88.7109C103.852 86.2734 100.922 85.0781 97.3828 85.0781H95.5078L91.5 77.0391L87.4688 69.0234L88.2422 68.1328C88.6641 67.6641 89.3203 66.6563 89.7188 65.9063C92.7188 60.2813 90.9844 53.2031 85.7812 49.7109C83.6016 48.2578 82.0547 47.7656 79.1484 47.6016L76.6172 47.4609L72.6797 39.4688L68.7422 31.5L69.5156 30.5625C72.7734 26.7188 73.3594 21.0938 70.9453 16.5469C69.4453 13.7109 66.3281 11.25 63.1641 10.4297C61.4531 9.98438 58.4297 10.0078 56.7422 10.4531ZM62.6719 18.2813C63.1406 18.6094 63.8203 19.2891 64.1719 19.7813C64.7344 20.6016 64.8047 20.9297 64.8047 22.5C64.8047 24.0703 64.7344 24.3984 64.1719 25.2188C63.8203 25.7109 63.1406 26.3906 62.6484 26.7188C61.9219 27.2109 61.5234 27.3047 60 27.3047C58.4766 27.3047 58.0781 27.2109 57.3516 26.7188C55.4531 25.4297 54.5859 22.9453 55.2891 20.7891C55.6172 19.8281 56.9766 18.3516 57.9844 17.9063C59.1562 17.3672 61.6172 17.5781 62.6719 18.2813ZM43.9219 55.7813C44.3906 56.1094 45.0703 56.7891 45.4219 57.2813C45.9844 58.1016 46.0547 58.4297 46.0547 60C46.0547 61.5703 45.9844 61.8984 45.4219 62.7188C45.0703 63.2109 44.3906 63.8906 43.8984 64.2188C43.1719 64.7109 42.7734 64.8047 41.25 64.8047C39.7266 64.8047 39.3281 64.7109 38.6016 64.2188C36.7031 62.9297 35.8359 60.4453 36.5391 58.2891C36.8672 57.3281 38.2266 55.8516 39.2344 55.4063C40.4062 54.8672 42.8672 55.0781 43.9219 55.7813ZM81.4219 55.7813C81.8906 56.1094 82.5703 56.7891 82.9219 57.2813C83.4844 58.1016 83.5547 58.4297 83.5547 60C83.5547 61.5703 83.4844 61.8984 82.9219 62.7188C82.5703 63.2109 81.8906 63.8906 81.3984 64.2188C80.6719 64.7109 80.2734 64.8047 78.75 64.8047C77.2266 64.8047 76.8281 64.7109 76.1016 64.2188C74.2031 62.9297 73.3359 60.4453 74.0391 58.2891C74.3672 57.3281 75.7266 55.8516 76.7344 55.4063C77.9062 54.8672 80.3672 55.0781 81.4219 55.7813ZM25.1719 93.2813C25.6406 93.6094 26.3203 94.2891 26.6719 94.7813C27.2344 95.6016 27.3047 95.9297 27.3047 97.5C27.3047 99.0703 27.2344 99.3984 26.6719 100.219C26.3203 100.711 25.6406 101.391 25.1484 101.719C24.4219 102.211 24.0234 102.305 22.5 102.305C20.9766 102.305 20.5781 102.211 19.8516 101.719C17.9531 100.43 17.0859 97.9453 17.7891 95.7891C18.1172 94.8281 19.4766 93.3516 20.4844 92.9063C21.6562 92.3672 24.1172 92.5781 25.1719 93.2813ZM62.6719 93.2813C63.1406 93.6094 63.8203 94.2891 64.1719 94.7813C64.7344 95.6016 64.8047 95.9297 64.8047 97.5C64.8047 99.0703 64.7344 99.3984 64.1719 100.219C63.8203 100.711 63.1406 101.391 62.6484 101.719C61.9219 102.211 61.5234 102.305 60 102.305C58.4766 102.305 58.0781 102.211 57.3516 101.719C55.4531 100.43 54.5859 97.9453 55.2891 95.7891C55.6172 94.8281 56.9766 93.3516 57.9844 92.9063C59.1562 92.3672 61.6172 92.5781 62.6719 93.2813ZM100.172 93.2813C100.641 93.6094 101.32 94.2891 101.672 94.7813C102.234 95.6016 102.305 95.9297 102.305 97.5C102.305 99.0703 102.234 99.3984 101.672 100.219C101.32 100.711 100.641 101.391 100.148 101.719C99.4219 102.211 99.0234 102.305 97.5 102.305C95.9766 102.305 95.5781 102.211 94.8516 101.719C92.9531 100.43 92.0859 97.9453 92.7891 95.7891C93.1172 94.8281 94.4766 93.3516 95.4844 92.9063C96.6562 92.3672 99.1172 92.5781 100.172 93.2813Z" fill="white"/>
</svg>
