<svg width="28" height="28" viewBox="0 0 28 20" fill="none" xmlns="http://www.w3.org/2000/svg">
    <path d="M12.5 0C6.81818 0 1.96591 4.14667 0 10C1.96591 15.8533 6.81818 20 12.5 20C18.1818 20 23.0341 15.8533 25 10C23.0341 4.14667 18.1818 0 12.5 0ZM12.5 16.6667C9.36364 16.6667 6.81818 13.68 6.81818 10C6.81818 6.32 9.36364 3.33333 12.5 3.33333C15.6364 3.33333 18.1818 6.32 18.1818 10C18.1818 13.68 15.6364 16.6667 12.5 16.6667ZM12.5 6C10.6136 6 9.09091 7.78667 9.09091 10C9.09091 12.2133 10.6136 14 12.5 14C14.3864 14 15.9091 12.2133 15.9091 10C15.9091 7.78667 14.3864 6 12.5 6Z" fill="#132BAA"/>
</svg>
