<svg width="155" height="155" viewBox="0 0 155 155" fill="none" xmlns="http://www.w3.org/2000/svg">
    <path d="M64.5834 106.562L103.333 77.5L64.5834 48.4375V106.562ZM77.5001 12.9166C41.8501 12.9166 12.9167 41.85 12.9167 77.5C12.9167 113.15 41.8501 142.083 77.5001 142.083C113.15 142.083 142.083 113.15 142.083 77.5C142.083 41.85 113.15 12.9166 77.5001 12.9166ZM77.5001 129.167C49.0188 129.167 25.8334 105.981 25.8334 77.5C25.8334 49.0187 49.0188 25.8333 77.5001 25.8333C105.981 25.8333 129.167 49.0187 129.167 77.5C129.167 105.981 105.981 129.167 77.5001 129.167Z" fill="white"/>
</svg>
