<svg width="72" height="72" viewBox="0 0 72 72" fill="none" xmlns="http://www.w3.org/2000/svg">
    <path fill-rule="evenodd" clip-rule="evenodd" d="M36 0.166504C16.22 0.166504 0.166687 16.2198 0.166687 35.9998C0.166687 55.7798 16.22 71.8332 36 71.8332C55.78 71.8332 71.8334 55.7798 71.8334 35.9998C71.8334 16.2198 55.78 0.166504 36 0.166504ZM57.5 35.9998C57.5 47.8607 47.8609 57.4998 36 57.4998C24.1392 57.4998 14.5 47.8607 14.5 35.9998H21.6667C21.6667 43.919 28.0809 50.3332 36 50.3332C43.9192 50.3332 50.3334 43.919 50.3334 35.9998C50.3334 28.0807 43.9192 21.6665 36 21.6665V32.4165L21.6667 18.0832L36 3.74984V14.4998C47.8609 14.4998 57.5 24.139 57.5 35.9998Z" fill="#132BAA"/>
</svg>
