<svg width="60" height="60" viewBox="0 0 60 60" fill="none" xmlns="http://www.w3.org/2000/svg">
    <path d="M40.5 18.7849C40.35 18.8149 16.325 28.0099 15.96 28.1749C15.41 28.4249 15 28.8399 15 29.1449C15 29.4099 15.275 29.7099 15.66 29.8749C15.76 29.9149 17.25 30.3849 18.97 30.9199L22.1 31.8949L29.14 27.4899C33.01 25.0649 36.29 23.0199 36.425 22.9449C36.78 22.7449 37.045 22.7149 37.2 22.8399C37.315 22.9349 37.32 22.9499 37.25 23.0649C37.21 23.1349 34.59 25.5149 31.425 28.3499C28.265 31.1899 25.66 33.5249 25.64 33.5449C25.62 33.5649 25.51 34.8599 25.4 36.4249C25.295 37.995 25.19 39.41 25.175 39.57L25.145 39.865L25.38 39.83C25.515 39.815 25.71 39.755 25.825 39.7C25.94 39.645 26.735 38.925 27.7 38C28.62 37.1199 29.385 36.3999 29.4 36.3999C29.415 36.3999 30.82 37.425 32.52 38.675C34.31 39.985 35.74 41 35.91 41.075C36.695 41.43 37.29 41.21 37.645 40.445C37.765 40.185 38.2 38.235 39.885 30.3499C42.23 19.3749 42.125 19.9649 41.825 19.3749C41.63 18.9899 41.34 18.7999 40.915 18.7749C40.755 18.7649 40.57 18.7699 40.5 18.7849Z" fill="#132BAA"/>
</svg>
