<svg width="155" height="155" viewBox="0 0 155 155" fill="none" xmlns="http://www.w3.org/2000/svg">
    <path d="M123.613 83.5708C123.871 81.6333 124 79.6312 124 77.5C124 75.4333 123.871 73.3667 123.548 71.4292L136.658 61.225C137.821 60.3208 138.144 58.5771 137.433 57.2854L125.033 35.8438C124.258 34.4229 122.644 33.9708 121.223 34.4229L105.788 40.6229C102.558 38.1687 99.1354 36.1021 95.325 34.5521L93 18.1479C92.7417 16.5979 91.45 15.5 89.9 15.5H65.1C63.55 15.5 62.3229 16.5979 62.0646 18.1479L59.7396 34.5521C55.9292 36.1021 52.4417 38.2333 49.2771 40.6229L33.8417 34.4229C32.4208 33.9062 30.8063 34.4229 30.0313 35.8438L17.6958 57.2854C16.9208 58.6417 17.1792 60.3208 18.4708 61.225L31.5813 71.4292C31.2583 73.3667 31 75.4979 31 77.5C31 79.5021 31.1292 81.6333 31.4521 83.5708L18.3417 93.775C17.1792 94.6792 16.8563 96.4229 17.5667 97.7146L29.9667 119.156C30.7417 120.577 32.3563 121.029 33.7771 120.577L49.2125 114.377C52.4417 116.831 55.8646 118.898 59.675 120.448L62 136.852C62.3229 138.402 63.55 139.5 65.1 139.5H89.9C91.45 139.5 92.7417 138.402 92.9354 136.852L95.2604 120.448C99.0708 118.898 102.558 116.831 105.723 114.377L121.158 120.577C122.579 121.094 124.194 120.577 124.969 119.156L137.369 97.7146C138.144 96.2937 137.821 94.6792 136.594 93.775L123.613 83.5708ZM77.5 100.75C64.7125 100.75 54.25 90.2875 54.25 77.5C54.25 64.7125 64.7125 54.25 77.5 54.25C90.2875 54.25 100.75 64.7125 100.75 77.5C100.75 90.2875 90.2875 100.75 77.5 100.75Z" fill="white"/>
</svg>
