<svg width="120" height="120" viewBox="0 0 120 120" fill="none" xmlns="http://www.w3.org/2000/svg">
    <path d="M86.9765 0.398438C86.5546 0.609375 85.9921 1.125 85.7577 1.5C85.3358 2.20312 85.3124 3.28125 85.3124 29.3438V56.4844H74.1796H63.0468V45V33.5156L62.2499 32.625L61.453 31.7578L46.1249 31.6875C28.8515 31.6172 29.7421 31.5234 28.828 33.3984C28.3593 34.3594 28.3593 34.7812 28.3593 58.8984V83.4141L15.2811 83.4844C0.749889 83.5547 1.47645 83.4844 0.445201 85.1484C-0.000111029 85.875 -0.000111034 86.3672 0.046764 102L0.117076 118.125L1.0077 118.992L1.87489 119.883H59.9999H118.125L118.992 118.992L119.883 118.125V60V1.875L118.992 1.00781L118.125 0.117188L102.937 0.0703125C89.1561 0 87.703 0.046875 86.9765 0.398438ZM113.672 60V113.672H102.656H91.6405V60V6.32812H102.656H113.672V60ZM56.953 75.8203V113.672H45.8202H34.6874V75.8203V37.9688H45.8202H56.953V75.8203ZM85.3124 88.2422V113.672H74.1796H63.0468V88.4062C63.0468 74.5078 63.1171 63.0469 63.2108 62.9766C63.2811 62.8828 68.2968 62.8125 74.3436 62.8125H85.3124V88.2422ZM28.3593 101.719V113.672H17.3436H6.32801V101.719V89.7656H17.3436H28.3593V101.719Z" fill="white"/>
</svg>
