<svg width="117" height="143" viewBox="0 0 117 143" fill="none" xmlns="http://www.w3.org/2000/svg">
    <path d="M103.708 12.9167H76.7125C74 5.425 66.8958 0 58.5 0C50.1042 0 43 5.425 40.2875 12.9167H13.2917C6.1875 12.9167 0.375 18.7292 0.375 25.8333V129.167C0.375 136.271 6.1875 142.083 13.2917 142.083H103.708C110.812 142.083 116.625 136.271 116.625 129.167V25.8333C116.625 18.7292 110.812 12.9167 103.708 12.9167ZM58.5 12.9167C62.0521 12.9167 64.9583 15.8229 64.9583 19.375C64.9583 22.9271 62.0521 25.8333 58.5 25.8333C54.9479 25.8333 52.0417 22.9271 52.0417 19.375C52.0417 15.8229 54.9479 12.9167 58.5 12.9167ZM103.708 129.167H13.2917V25.8333H26.2083V45.2083H90.7917V25.8333H103.708V129.167Z" fill="white"/>
</svg>
