<svg width="63" height="66" viewBox="0 0 63 66" fill="none" xmlns="http://www.w3.org/2000/svg">
    <path d="M65.2995 33.342C65.2995 51.3485 50.7508 65.9457 32.804 65.9457C14.8573 65.9457 0.308594 51.3485 0.308594 33.342C0.308594 15.3354 14.8573 0.73822 32.804 0.73822C50.7508 0.73822 65.2995 15.3354 65.2995 33.342ZM64.3452 33.342C64.3452 15.8642 50.2237 1.69566 32.804 1.69566C15.3843 1.69566 1.26286 15.8642 1.26286 33.342C1.26286 50.8197 15.3843 64.9883 32.804 64.9883C50.2237 64.9883 64.3452 50.8197 64.3452 33.342Z" fill="#040D49"/>
    <path d="M32.8039 1.65747C15.3633 1.65747 1.22473 15.8431 1.22473 33.342C1.22473 50.8408 15.3632 65.0265 32.8039 65.0265C50.2447 65.0265 64.3831 50.8408 64.3831 33.342C64.3831 15.8431 50.2447 1.65747 32.8039 1.65747Z" fill="#040D49"/>
    <path d="M11.9413 15.1513L20.4902 51.2123L20.0383 50.8445L29.3046 51.0846L28.8251 51.4663L35.2218 20.3854C35.267 20.1655 35.4585 20.0067 35.6822 20.0035L53.5948 19.7465L53.1252 20.2501L52.7758 13.5036L53.2715 13.9571L29.9692 14.9003L30.4175 14.5173L24.9175 41.6981C24.8719 41.9233 24.6733 42.0843 24.4442 42.0815C24.2151 42.0787 24.0204 41.9131 23.9802 41.6868L19.1976 14.746L19.7021 15.1395L11.5119 15.7395L11.9413 15.1513ZM11.013 15.3728C10.9806 15.2363 11.0096 15.0924 11.0922 14.9792C11.1749 14.8659 11.3029 14.7948 11.4424 14.7846L19.6326 14.1846C19.8764 14.1667 20.0942 14.3366 20.1371 14.5781L24.9197 41.5189L23.9823 41.5076L29.4823 14.3268C29.5261 14.1107 29.7111 13.9526 29.9307 13.9437L53.233 13.0004C53.4942 12.9898 53.7151 13.192 53.7287 13.4539L54.0781 20.2004C54.0848 20.3303 54.0386 20.4573 53.95 20.5523C53.8614 20.6473 53.7381 20.702 53.6085 20.7039L35.6959 20.9609L36.1563 20.579L29.7596 51.6599C29.7129 51.8869 29.5109 52.0477 29.28 52.0417L20.0137 51.8017C19.7974 51.7961 19.6119 51.6451 19.5618 51.4339L11.013 15.3728Z" fill="white"/>
    <path d="M40.8838 23.4667L41.2791 45.2282C41.2838 45.4889 41.0796 45.7055 40.8199 45.7153L34.7783 45.942L35.2375 45.4723L35.1246 51.706L34.6533 51.2186L53.4556 51.4453L52.9732 51.9444L52.6908 45.314L53.1584 45.7722L47.2298 45.6588C46.9727 45.6539 46.7658 45.4456 46.7618 45.1877L46.423 23.3695L46.9084 23.8407L40.4151 23.954L40.8838 23.4667ZM39.9298 23.4841C39.9274 23.3571 39.9755 23.2344 40.0635 23.143C40.1514 23.0516 40.2719 22.999 40.3985 22.9968L46.8918 22.8834C47.0185 22.8812 47.1408 22.9296 47.2319 23.018C47.3229 23.1064 47.3752 23.2275 47.3772 23.3546L47.7159 45.1728L47.248 44.7016L53.1766 44.8149C53.4287 44.8197 53.6334 45.0204 53.6442 45.2731L53.9265 51.9036C53.9321 52.035 53.8836 52.1629 53.7924 52.2573C53.7011 52.3517 53.5752 52.4043 53.4441 52.4027L34.6418 52.176C34.5148 52.1745 34.3936 52.1222 34.3051 52.0307C34.2166 51.9392 34.1682 51.8161 34.1705 51.6886L34.2834 45.4549C34.288 45.2008 34.4896 44.9947 34.7426 44.9852L40.7842 44.7585L40.325 45.2456L39.9298 23.4841Z" fill="white"/>
    <path d="M52.8002 13.942C52.7998 13.942 52.7993 13.942 52.7988 13.942L30.3449 14.8511C30.3442 14.8511 30.3436 14.8511 30.343 14.8511C30.327 14.8511 30.3129 14.8624 30.3097 14.8784L24.8841 41.6913C24.8422 41.8987 24.6604 42.0474 24.45 42.0474C24.4475 42.0474 24.4474 42.0474 24.4472 42.0474C24.447 42.0474 24.4467 42.0474 24.4446 42.0474H24.4446C24.2318 42.0448 24.051 41.8909 24.0137 41.6808L19.3065 15.1651H19.3065C19.3053 15.1578 19.3017 15.151 19.2962 15.1459C19.2899 15.14 19.2816 15.1368 19.273 15.1368C19.2722 15.1368 19.2713 15.1368 19.2705 15.1369L12.0718 15.6644H12.0705C12.0693 15.6644 12.0681 15.6645 12.0669 15.6646C12.0498 15.6667 12.037 15.6813 12.037 15.6985H12.037C12.037 15.699 12.037 15.6994 12.0371 15.6999C12.0372 15.7055 12.0388 15.7107 12.0414 15.7153H12.04L20.3721 50.8621C20.3758 50.8776 20.3896 50.8883 20.4052 50.8883C20.4058 50.8883 20.4065 50.8883 20.4071 50.8883H20.4085L28.9048 51.1085C28.9051 51.1085 28.9054 51.1085 28.9057 51.1085C28.9146 51.1085 28.9231 51.105 28.9295 51.0988C28.9344 51.094 28.9377 51.0878 28.9391 51.0811H28.939L35.2551 20.3923C35.2971 20.1881 35.4749 20.0406 35.6827 20.0376L53.0999 19.7879C53.1185 19.7876 53.1334 19.7724 53.1334 19.7538V19.7536L53.1334 19.7519L52.8342 13.9744C52.8332 13.9561 52.8182 13.942 52.8002 13.942Z" fill="white"/>
    <path d="M46.4304 23.8149C46.4302 23.8149 46.4301 23.8149 46.4299 23.8149L40.8951 23.9117C40.8943 23.9116 40.8934 23.9116 40.8925 23.9116C40.8737 23.9116 40.8585 23.9268 40.8585 23.9457C40.8585 23.9459 40.8585 23.946 40.8585 23.9461C40.8585 23.9499 40.8591 23.9534 40.8602 23.9567H40.8587L41.245 45.2288C41.2494 45.471 41.0598 45.6721 40.8186 45.6812H40.8186L35.2312 45.8909C35.2307 45.8909 35.2301 45.8909 35.2296 45.8909H35.2293C35.2107 45.8909 35.1956 45.9058 35.1953 45.9244L35.0992 51.2238C35.0991 51.2329 35.1026 51.2418 35.109 51.2483H35.1088C35.115 51.2547 35.1237 51.2587 35.1333 51.2587C35.1342 51.2587 35.135 51.2587 35.1359 51.2586H35.1374L52.9512 51.4735H52.9516C52.9605 51.4735 52.9691 51.47 52.9755 51.4637C52.982 51.4573 52.9856 51.4485 52.9856 51.4394V51.4392L52.9856 51.4378L52.7439 45.7623C52.7433 45.7443 52.7287 45.7298 52.7106 45.7295L47.2304 45.6247C46.9917 45.6201 46.7995 45.4266 46.7958 45.1871L46.4645 23.8485C46.4643 23.8395 46.4606 23.8308 46.4541 23.8245C46.4477 23.8184 46.4393 23.8149 46.4304 23.8149Z" fill="white"/>
</svg>
